<mxfile host="app.diagrams.net" modified="2023-08-22T06:41:02.426Z" agent="Mozilla/5.0 (Windows NT 10.0; Win64; x64) AppleWebKit/537.36 (KHTML, like Gecko) Chrome/116.0.0.0 Safari/537.36" version="21.6.8" etag="tU8Azo7hOv1-OotW7TkO" type="github">
  <diagram name="Page-1" id="ZBOImXk49Cvvsjajhp_c">
    <mxGraphModel>
      <root>
        <mxCell id="0" />
        <mxCell id="1" parent="0" />
      </root>
    </mxGraphModel>
  </diagram>
</mxfile>
